<?xml version="1.0" encoding="utf-8"?>
<svg height="511pt" viewBox="1 0 511.99954 511" width="511pt" xmlns="http://www.w3.org/2000/svg" xmlns:xlink="http://www.w3.org/1999/xlink" xmlns:bx="https://boxy-svg.com">
  <defs>
    <linearGradient id="gradient-2" bx:pinned="true">
      <stop offset="0" style="stop-color: rgb(255, 0, 0);"/>
      <stop offset="1" style="stop-color: rgb(255, 145, 0);"/>
    </linearGradient>
    <linearGradient id="gradient-2-0" gradientUnits="userSpaceOnUse" x1="256" y1="0.5" x2="256" y2="511.5" xlink:href="#gradient-2"/>
  </defs>
  <path d="M 512 255.5 L 511.996 256.5 C 511.809 305.168 497.918 352.438 471.797 393.277 C 467.98 399.242 461.523 402.504 454.93 402.504 C 451.242 402.504 447.508 401.48 444.172 399.348 C 434.867 393.395 432.148 381.027 438.102 371.723 C 460.188 337.195 471.906 297.188 472 256 C 471.73 137.125 375.383 40.5 257 40.5 C 181.359 40.5 111.18 80.625 72.316 144.43 L 118.031 144.5 C 129.078 144.516 138.016 153.484 138 164.531 C 137.984 175.562 129.031 184.5 118 184.5 C 117.992 184.5 117.98 184.5 117.969 184.5 L 59.453 184.41 C 43.512 184.445 28.672 178.344 17.52 167.195 C 6.156 155.832 -0.066 140.578 0 124.242 L 0 66.5 C 0 55.453 8.953 46.5 20 46.5 C 31.047 46.5 40 55.453 40 66.5 L 40 120.605 C 59.789 89.035 86.289 62.062 117.844 41.59 C 159.281 14.707 207.398 0.5 257 0.5 C 325.34 0.5 389.465 27.145 437.563 75.523 C 485.328 123.57 511.742 187.453 512 255.5 Z M 380.543 432.703 C 344.215 458.082 301.496 471.5 257 471.5 C 256.832 471.5 256.668 471.52 256.5 471.523 C 256.332 471.52 256.168 471.5 256 471.5 C 252.965 471.5 249.879 471.434 246.828 471.309 C 235.824 470.848 226.477 479.426 226.016 490.461 C 225.559 501.496 234.133 510.816 245.172 511.273 C 248.77 511.422 252.414 511.5 256 511.5 C 256.168 511.5 256.332 511.48 256.5 511.477 C 256.668 511.48 256.832 511.5 257 511.5 C 309.73 511.5 360.371 495.594 403.453 465.496 C 412.508 459.168 414.723 446.699 408.395 437.645 C 402.07 428.59 389.602 426.379 380.543 432.703 Z M 467.18 10.281 C 466.996 10.471 77.258 393.551 69.152 401.055 C 61.043 408.555 3.919 465.564 4.363 466.4 C 4.596 466.84 -6.469 479.39 9.688 498.636 C 25.96 518.019 44.264 506.72 43.709 506.88 C 42.834 507.131 106.52 446.625 110.465 442.363 C 117.965 434.258 505.831 42.91 506.07 42.661 C 525.666 22.242 490.591 -13.839 467.18 10.281 Z M 53.437 330.68 C 49.59 320.324 38.082 315.043 27.727 318.891 C 17.371 322.734 12.094 334.246 15.937 344.602 C 18.25 350.832 20.84 357.047 23.637 363.078 C 27.023 370.379 34.246 374.672 41.797 374.672 C 44.613 374.672 47.473 374.07 50.195 372.809 C 60.219 368.164 64.574 356.273 59.926 346.25 C 57.57 341.168 55.387 335.93 53.437 330.68 Z M 180.855 458.074 C 175.598 456.125 170.355 453.937 165.273 451.582 C 155.25 446.934 143.359 451.289 138.715 461.313 C 134.066 471.332 138.422 483.223 148.441 487.871 C 154.477 490.668 160.699 493.262 166.941 495.574 C 169.234 496.426 171.586 496.832 173.895 496.832 C 182.02 496.832 189.656 491.844 192.648 483.781 C 196.488 473.426 191.211 461.918 180.855 458.074 Z M 21.039 285.48 C 32.078 285.023 40.652 275.703 40.191 264.668 C 40.066 261.633 40 258.547 40 255.5 C 40 244.453 31.047 235.5 20 235.5 C 8.953 235.5 0 244.453 0 255.5 C 0 259.102 0.078 262.746 0.227 266.332 C 0.672 277.086 9.531 285.5 20.191 285.5 C 20.473 285.5 20.758 285.492 21.039 285.48 Z M 179.531 266.719 C 185.828 261.594 192.625 257.16 199.77 253.426 C 188.098 240.059 181 222.598 181 203.5 C 181 161.594 215.094 127.5 257 127.5 C 298.906 127.5 333 161.594 333 203.5 C 333 222.598 325.902 240.059 314.227 253.426 C 321.375 257.16 328.168 261.594 334.469 266.719 C 355.777 284.059 370.598 308.273 376.199 334.895 C 378.504 345.836 375.781 357.094 368.734 365.777 C 361.66 374.5 351.141 379.5 339.875 379.5 L 174.125 379.5 C 162.859 379.5 152.34 374.5 145.266 365.777 C 138.219 357.094 135.496 345.836 137.797 334.895 C 143.398 308.273 158.219 284.059 179.531 266.719 Z M 221 203.5 C 221 223.352 237.148 239.5 257 239.5 C 276.852 239.5 293 223.352 293 203.5 C 293 183.648 276.852 167.5 257 167.5 C 237.148 167.5 221 183.648 221 203.5 Z M 177.797 339.5 L 336.203 339.5 C 327.082 304.516 294.648 279.5 257.68 279.5 L 256.32 279.5 C 219.352 279.5 186.918 304.516 177.797 339.5 Z M 177.797 339.5" style="filter: none; paint-order: stroke; fill: url(#gradient-2-0);"/>
  <path style="fill: rgb(216, 216, 216); stroke: rgb(0, 0, 0);"/>
</svg>